#!OML:ASF F:\VICON\USERDATA\INSTALL\rory3\rory3.ASF
:FULLY-SPECIFIED
:DEGREES
3966
root -15.3445 17.7965 14.4942 1.75989 112.976 -361.454
lowerback 9.17456 -0.521163 -2.05008
upperback 0.697642 -0.771152 1.90275
thorax -4.36726 -0.307509 3.2342
lowerneck -7.92256 -6.55353 -13.6608
upperneck 42.8747 -5.92053 6.7798
head 18.1376 -2.76096 4.9885
rclavicle 9.24349e-014 7.15625e-015
rhumerus -37.0686 -19.2366 -75.0868
rradius 29.6424
rwrist 5.3032
rhand -17.565 6.05743
rfingers 7.12502
rthumb 8.69018 -23.7437
lclavicle 9.24349e-014 7.15625e-015
lhumerus -35.0968 6.40693 84.2069
lradius 37.4525
lwrist -2.96737
lhand -20.5026 25.8518
lfingers 7.12502
lthumb 5.85457 55.7509
rfemur -6.08694 -7.15508 22.1177
rtibia 27.5576
rfoot -17.1776 -20.812
rtoes -0.0315015
lfemur -14.1567 10.4578 -20.6254
ltibia 28.5888
lfoot -10.0554 21.0503
ltoes 3.90933
3967
root -15.3495 17.8031 14.4568 0.970034 113.979 -362.208
lowerback 9.19256 -0.650505 -2.32496
upperback 0.729494 -0.975931 1.8207
thorax -4.32634 -0.405751 3.32961
lowerneck -8.05501 -6.55425 -13.8501
upperneck 42.8488 -5.89538 6.90047
head 18.173 -2.76248 5.08562
rclavicle 3.80673e-014 -4.29375e-014
rhumerus -37.2235 -19.4691 -74.8925
rradius 29.5116
rwrist 5.42439
rhand -17.6335 6.01072
rfingers 7.12502
rthumb 8.62405 -23.7931
lclavicle 3.80673e-014 -4.29375e-014
lhumerus -34.9153 6.71026 84.2769
lradius 37.752
lwrist -3.24483
lhand -20.4741 25.7735
lfingers 7.12502
lthumb 5.8821 55.6718
rfemur -6.0345 -7.07918 21.6715
rtibia 28.045
rfoot -18.3546 -20.9701
rtoes 4.85012
lfemur -13.8951 9.75722 -21.0062
ltibia 28.2056
lfoot -9.72423 21.1549
ltoes 0.539408
3968
root -15.3556 17.7985 14.4225 0.424332 115.031 -362.747
lowerback 9.2526 -0.711912 -2.5098
upperback 0.701378 -1.08531 1.69546
thorax -4.38013 -0.456899 3.31875
lowerneck -8.05102 -6.58605 -13.8142
upperneck 42.7478 -5.98878 7.00779
head 18.1271 -2.77369 5.11
rclavicle 2.51463e-014 -2.06736e-014
rhumerus -37.5296 -20.0414 -74.5883
rradius 29.3757
rwrist 5.74388
rhand -17.5214 6.11066
rfingers 7.12502
rthumb 8.73226 -23.6887
lclavicle 2.51463e-014 -2.06736e-014
lhumerus -34.6153 6.23752 84.3981
lradius 37.9407
lwrist -3.17076
lhand -21.071 25.8583
lfingers 7.12502
lthumb 5.30581 55.7719
rfemur -6.05329 -7.07592 21.3609
rtibia 28.533
rfoot -19.0942 -21.4609
rtoes 7.59835
lfemur -13.7406 9.13062 -21.3439
ltibia 27.9397
lfoot -9.78557 20.6995
ltoes -0.355029
3969
root -15.3598 17.7883 14.3933 -0.0172885 115.984 -363.139
lowerback 9.36494 -0.723756 -2.80227
upperback 0.648751 -1.13895 1.62718
thorax -4.48969 -0.476204 3.42322
lowerneck -7.944 -6.61464 -13.5162
upperneck 42.5625 -6.06469 6.85998
head 17.9671 -2.76603 4.9577
rclavicle -4.47266e-014 4.37326e-015
rhumerus -37.909 -20.4392 -74.307
rradius 29.2433
rwrist 5.90709
rhand -17.6206 6.12552
rfingers 7.12502
rthumb 8.6365 -23.6778
lclavicle -4.47266e-014 4.37326e-015
lhumerus -34.2213 5.58713 84.5357
lradius 37.9962
lwrist -2.92625
lhand -21.123 26.1391
lfingers 7.12502
lthumb 5.25558 56.0539
rfemur -6.07136 -7.09815 21.1466
rtibia 29.0465
rfoot -19.5404 -22.1514
rtoes 8.41086
lfemur -13.5618 8.79133 -21.6267
ltibia 27.7279
lfoot -9.84929 19.7309
ltoes -0.349116
3970
root -15.362 17.7791 14.3593 -0.647675 116.79 -363.716
lowerback 9.27066 -0.634617 -3.15638
upperback 0.756254 -1.05875 1.51467
thorax -4.32663 -0.435325 3.49178
lowerneck -7.9219 -6.66763 -13.1766
upperneck 42.2832 -6.2299 6.80235
head 17.7886 -2.77988 4.81946
rclavicle 3.67752e-015 -1.78906e-014
rhumerus -38.0022 -21.3057 -73.9517
rradius 28.8915
rwrist 6.26023
rhand -17.8753 6.0381
rfingers 7.12502
rthumb 8.39072 -23.7752
lclavicle 3.67752e-015 -1.78906e-014
lhumerus -33.7386 5.01879 84.7471
lradius 38.2032
lwrist -2.65175
lhand -20.4995 26.1857
lfingers 7.12502
lthumb 5.85757 56.0847
rfemur -6.08831 -7.35352 20.7992
rtibia 29.5305
rfoot -19.5493 -22.8375
rtoes 7.96178
lfemur -13.36 8.39709 -22.0375
ltibia 27.5822
lfoot -9.81231 19.2618
ltoes -0.887183
3971
root -15.3705 17.7673 14.3215 -1.11003 117.634 -364.195
lowerback 9.00625 -0.544243 -3.31177
upperback 0.964617 -0.946804 1.39919
thorax -3.96997 -0.387541 3.43642
lowerneck -8.17255 -6.75025 -13.0906
upperneck 42.1653 -6.41067 6.95534
head 17.8138 -2.81467 4.83791
rclavicle 2.96189e-014 -1.31198e-014
rhumerus -37.8722 -22.3582 -73.5469
rradius 28.4916
rwrist 6.66493
rhand -17.8825 5.93883
rfingers 7.12502
rthumb 8.38373 -23.8748
lclavicle 2.96189e-014 -1.31198e-014
lhumerus -33.1806 4.38732 85.0479
lradius 38.5801
lwrist -2.37865
lhand -19.934 25.8519
lfingers 7.12502
lthumb 6.40354 55.7351
rfemur -6.2748 -7.87592 20.5099
rtibia 30.0105
rfoot -19.0173 -23.8146
rtoes 6.86867
lfemur -13.2718 8.0136 -22.4648
ltibia 27.4371
lfoot -9.6817 19.0113
ltoes -1.63091
3972
root -15.3808 17.769 14.2812 -1.21111 118.501 -364.304
lowerback 8.83058 -0.523529 -3.17261
upperback 1.07608 -0.902106 1.28843
thorax -3.7634 -0.373401 3.23173
lowerneck -8.35365 -6.79696 -13.0838
upperneck 42.1287 -6.4905 7.06382
head 17.8581 -2.82487 4.87376
rclavicle -5.46658e-015 -8.34896e-015
rhumerus -37.9348 -22.9947 -73.2954
rradius 28.2773
rwrist 6.97515
rhand -17.76 5.88608
rfingers 7.12502
rthumb 8.50197 -23.9228
lclavicle -5.46658e-015 -8.34896e-015
lhumerus -32.8134 3.67951 85.2568
lradius 39.0407
lwrist -2.13256
lhand -19.6391 25.5894
lfingers 7.12502
lthumb 6.68824 55.4637
rfemur -6.32934 -7.73989 20.3022
rtibia 30.5204
rfoot -20.4637 -23.7655
rtoes 13.0971
lfemur -13.1859 7.64473 -22.7281
ltibia 27.2196
lfoot -9.45282 18.5712
ltoes -2.26303
3973
root -15.3863 17.7719 14.2362 -1.46051 119.279 -364.503
lowerback 8.72005 -0.498995 -3.08626
upperback 1.14799 -0.861102 1.16555
thorax -3.63331 -0.358106 3.04708
lowerneck -8.35037 -6.79485 -13.1958
upperneck 42.045 -6.51865 7.26403
head 17.8298 -2.82133 4.9831
rclavicle -1.70955e-014 1.98785e-014
rhumerus -38.1291 -23.6072 -73.0057
rradius 28.0726
rwrist 7.42436
rhand -17.6734 6.01317
rfingers 7.12502
rthumb 8.58554 -23.7923
lclavicle -1.70955e-014 1.98785e-014
lhumerus -32.5945 3.12595 85.4212
lradius 39.4862
lwrist -1.9677
lhand -19.4334 25.6989
lfingers 7.12502
lthumb 6.88682 55.5669
rfemur -6.36872 -7.98649 20.0332
rtibia 31.0726
rfoot -20.4736 -24.0139
rtoes 13.5447
lfemur -12.9605 7.11967 -23.0353
ltibia 26.9583
lfoot -9.33771 18.2871
ltoes -2.05665
3974
root -15.3899 17.7748 14.1909 -1.81219 119.918 -364.797
lowerback 8.77077 -0.494763 -3.21432
upperback 1.09507 -0.871538 1.14706
thorax -3.71424 -0.359716 3.10293
lowerneck -8.29435 -6.71384 -13.3702
upperneck 42.0642 -6.33859 7.31411
head 17.8124 -2.75898 5.07605
rclavicle 5.1684e-015 -7.15625e-015
rhumerus -38.3447 -23.5488 -72.8265
rradius 27.9166
rwrist 7.3356
rhand -17.7508 5.99229
rfingers 7.12502
rthumb 8.51086 -23.8162
lclavicle 5.1684e-015 -7.15625e-015
lhumerus -32.6863 2.85603 85.6219
lradius 40.0509
lwrist -1.68237
lhand -19.2024 25.9742
lfingers 7.12502
lthumb 7.10978 55.8348
rfemur -6.43128 -8.14934 19.6954
rtibia 31.6699
rfoot -20.2239 -24.276
rtoes 13.0344
lfemur -12.6579 6.61096 -23.3985
ltibia 26.6432
lfoot -9.20688 18.2199
ltoes -2.18745
3975
root -15.3952 17.7753 14.1484 -2.17791 120.432 -365.042
lowerback 9.14929 -0.451873 -3.49451
upperback 0.851185 -0.856569 1.24959
thorax -4.17543 -0.33545 3.37671
lowerneck -8.11731 -6.60341 -13.5196
upperneck 42.2469 -6.01598 7.15853
head 17.8275 -2.65291 5.10439
rclavicle 1.49089e-014 7.15625e-015
rhumerus -38.8413 -22.7458 -72.6879
rradius 27.996
rwrist 6.84919
rhand -17.8181 5.73267
rfingers 7.12502
rthumb 8.44591 -24.0785
lclavicle 1.49089e-014 7.15625e-015
lhumerus -33.1902 2.89852 85.8731
lradius 40.7889
lwrist -1.40648
lhand -18.9587 26.1688
lfingers 7.12502
lthumb 7.34502 56.0213
rfemur -6.45192 -8.08076 19.3527
rtibia 32.3253
rfoot -20.0537 -24.4392
rtoes 13.1198
lfemur -12.2864 6.28824 -23.7125
ltibia 26.3225
lfoot -9.27708 18.0577
ltoes -1.33001
3976
root -15.4003 17.7728 14.1066 -2.59852 120.98 -365.318
lowerback 9.32186 -0.352771 -3.59904
upperback 0.806639 -0.743556 1.21745
thorax -4.32705 -0.273844 3.39172
lowerneck -8.09901 -6.55266 -13.6985
upperneck 42.3903 -5.86366 7.24504
head 17.9026 -2.5933 5.22279
rclavicle -2.29596e-014 6.36111e-015
rhumerus -39.1026 -22.5988 -72.5759
rradius 27.8988
rwrist 6.90816
rhand -17.7861 5.75613
rfingers 7.12502
rthumb 8.47677 -24.0537
lclavicle -2.29596e-014 6.36111e-015
lhumerus -33.3106 2.60899 86.0757
lradius 41.5227
lwrist -1.05146
lhand -18.7109 26.2958
lfingers 7.12502
lthumb 7.58416 56.1398
rfemur -6.45403 -8.10512 18.9686
rtibia 33.0487
rfoot -19.9139 -24.568
rtoes 13.4356
lfemur -11.8768 6.16566 -24.0253
ltibia 25.9848
lfoot -9.41932 17.6066
ltoes -0.14689
3977
root -15.4035 17.77 14.0626 -3.03033 121.558 -365.681
lowerback 9.44726 -0.274967 -3.73707
upperback 0.719439 -0.663667 1.17827
thorax -4.49419 -0.227543 3.4217
lowerneck -8.07339 -6.49004 -13.9839
upperneck 42.545 -5.60653 7.19184
head 17.9675 -2.52614 5.31097
rclavicle 4.34344e-014 -9.93923e-015
rhumerus -39.3101 -22.5167 -72.3845
rradius 27.6551
rwrist 7.183
rhand -17.6991 5.87291
rfingers 7.12502
rthumb 8.56077 -23.9335
lclavicle 4.34344e-014 -9.93923e-015
lhumerus -33.4745 2.05345 86.3182
lradius 42.2006
lwrist -0.851043
lhand -18.4546 26.8663
lfingers 7.12502
lthumb 7.83161 56.7013
rfemur -6.55049 -8.04513 18.5467
rtibia 33.8653
rfoot -19.9867 -24.6748
rtoes 14.893
lfemur -11.5161 6.10858 -24.4049
ltibia 25.6107
lfoot -9.114 17.1555
ltoes -1.20981
3978
root -15.4049 17.7726 14.0213 -3.43188 122.15 -365.991
lowerback 9.51333 -0.175521 -3.78975
upperback 0.710077 -0.544101 1.08427
thorax -4.55175 -0.166736 3.33849
lowerneck -8.03488 -6.40996 -13.8589
upperneck 42.3999 -5.34156 6.77746
head 17.7992 -2.43844 5.12063
rclavicle 1.76918e-014 -9.54166e-015
rhumerus -39.408 -22.6935 -72.245
rradius 27.3793
rwrist 7.56632
rhand -17.5223 5.95523
rfingers 7.12502
rthumb 8.73133 -23.8442
lclavicle 1.76918e-014 -9.54166e-015
lhumerus -33.4995 1.22209 86.5606
lradius 42.8174
lwrist -0.666678
lhand -18.3057 27.841
lfingers 7.12502
lthumb 7.97527 57.6705
rfemur -6.65232 -7.82357 18.1793
rtibia 34.7566
rfoot -19.5111 -24.9243
rtoes 14.6697
lfemur -11.1238 6.01251 -24.7434
ltibia 25.2069
lfoot -8.76691 16.6912
ltoes -2.32772
3979
root -15.4076 17.7738 13.9855 -3.91866 122.898 -366.372
lowerback 9.59451 -0.133085 -3.88814
upperback 0.755117 -0.504907 0.958565
thorax -4.55361 -0.14647 3.25787
lowerneck -8.04841 -6.24794 -13.2756
upperneck 42.1773 -5.00582 6.18174
head 17.5522 -2.27097 4.76835
rclavicle 2.98177e-014 -1.59028e-015
rhumerus -39.3538 -22.5221 -72.398
rradius 27.1923
rwrist 7.60015
rhand -17.3217 6.12912
rfingers 7.12502
rthumb 8.92495 -23.6621
lclavicle 2.98177e-014 -1.59028e-015
lhumerus -33.4039 0.66607 86.7134
lradius 43.2519
lwrist -0.650575
lhand -18.7246 27.5593
lfingers 7.12502
lthumb 7.571 57.4038
rfemur -6.78842 -7.75708 17.7409
rtibia 35.7313
rfoot -18.758 -25.1242
rtoes 13.5024
lfemur -10.6941 5.99631 -25.0955
ltibia 24.7649
lfoot -8.61095 15.9427
ltoes -2.35866
3980
root -15.4099 17.7725 13.949 -4.3436 123.713 -366.685
lowerback 9.68325 -0.101252 -3.98384
upperback 0.788676 -0.478035 0.876502
thorax -4.57028 -0.131412 3.22322
lowerneck -8.13797 -6.11533 -13.003
upperneck 42.2271 -4.68651 5.86947
head 17.5293 -2.1203 4.63106
rclavicle -6.95746e-016 2.06736e-014
rhumerus -39.2652 -22.2138 -72.5458
rradius 27.0068
rwrist 7.51109
rhand -17.0485 6.38961
rfingers 7.12502
rthumb 9.18858 -23.3902
lclavicle -6.95746e-016 2.06736e-014
lhumerus -33.3321 0.339895 86.8433
lradius 43.5024
lwrist -0.977918
lhand -19.5008 25.8762
lfingers 7.12502
lthumb 6.82169 55.7463
rfemur -6.96796 -7.71414 17.3112
rtibia 36.7766
rfoot -18.276 -25.2064
rtoes 13.6294
lfemur -10.2521 6.05727 -25.4288
ltibia 24.311
lfoot -8.44068 15.1019
ltoes -3.17752
